<svg width="244" height="286" viewBox="0 0 244 286" fill="none" xmlns="http://www.w3.org/2000/svg">
<path d="M80.7329 4.77274C81.9698 3.23297 83.5503 2.00058 85.3495 1.17319C87.1486 0.345796 89.1168 -0.053875 91.0983 0.00582827H143.469C157.449 27.4787 171.433 54.9515 185.421 82.4243C185.421 87.617 185.421 92.8928 185.421 98.127H141.159C140.114 95.7799 138.808 93.5055 137.649 91.1896C129.394 75.0645 121.129 58.9395 112.853 42.8144C102.728 62.474 94.5987 82.1751 84.4841 101.855H138.819C138.819 109.139 138.819 116.409 138.819 123.665C138.794 126.568 138.192 129.439 137.046 132.11C135.9 134.781 134.233 137.2 132.141 139.227C130.05 141.255 127.575 142.851 124.86 143.923C122.145 144.995 119.243 145.522 116.322 145.474H51.413C48.1037 145.389 44.8714 144.463 42.025 142.783C39.1785 141.103 36.813 138.726 35.1544 135.878C33.3227 132.73 32.4412 129.125 32.6153 125.493V108.107C32.6153 101.502 32.7094 98.1478 35.6247 92.1554C49.7795 64.5649 63.9309 36.9744 78.0789 9.38384C78.8078 7.76328 79.6969 6.21867 80.7329 4.77274Z" fill="#3767EF"/>
<path d="M159.654 122.949H188.358C189.276 122.948 190.185 122.763 191.029 122.404C191.874 122.045 192.636 121.52 193.271 120.86C193.906 120.2 194.399 119.419 194.722 118.564C195.045 117.71 195.19 116.799 195.149 115.887L193.843 87.3478C193.763 85.611 193.012 83.9719 191.747 82.7709C190.482 81.5699 188.801 80.8993 187.051 80.8984H158.338C157.419 80.8989 156.51 81.0843 155.666 81.4434C154.821 81.8024 154.059 82.3278 153.424 82.9877C152.79 83.6476 152.296 84.4284 151.973 85.2831C151.65 86.1377 151.505 87.0485 151.546 87.9605L152.852 116.5C152.933 118.238 153.685 119.879 154.952 121.08C156.219 122.281 157.903 122.951 159.654 122.949Z" fill="#27BFF4"/>
<path d="M195.493 81.5314H209.286C209.526 81.5317 209.764 81.4834 209.985 81.3895C210.207 81.2956 210.406 81.1581 210.572 80.9853C210.738 80.8124 210.867 80.6079 210.952 80.384C211.036 80.1601 211.073 79.9216 211.062 79.6828L210.435 65.9637C210.414 65.51 210.217 65.082 209.886 64.7686C209.555 64.4553 209.116 64.2807 208.659 64.2813H194.866C194.626 64.281 194.388 64.3293 194.167 64.4231C193.945 64.517 193.746 64.6546 193.58 64.8274C193.414 65.0002 193.284 65.2048 193.2 65.4287C193.116 65.6526 193.079 65.8911 193.09 66.1299L193.717 79.8489C193.738 80.3026 193.935 80.7307 194.266 81.044C194.597 81.3573 195.036 81.5319 195.493 81.5314Z" fill="#FB7DFF"/>
<path d="M39.9008 237.327H16.3965L12.3579 248.797H2.74621L22.8582 192.58H33.5199L53.6319 248.797H43.9393L39.9008 237.327ZM37.3161 229.816L28.189 203.727L18.9812 229.816H37.3161ZM93.3118 248.797L71.5844 223.677V248.797H62.3766V192.661H71.5844V218.265L93.3926 192.661H104.943L80.55 220.769L105.347 248.797H93.3118ZM142.648 248.797L129.724 226.343H122.697V248.797H113.489V192.661H132.874C137.182 192.661 140.817 193.415 143.778 194.923C146.794 196.43 149.029 198.45 150.482 200.981C151.99 203.511 152.744 206.338 152.744 209.461C152.744 213.123 151.667 216.462 149.513 219.477C147.413 222.439 144.155 224.458 139.74 225.535L153.632 248.797H142.648ZM122.697 218.992H132.874C136.321 218.992 138.905 218.131 140.628 216.408C142.405 214.685 143.294 212.369 143.294 209.461C143.294 206.554 142.432 204.292 140.709 202.677C138.986 201.007 136.374 200.173 132.874 200.173H122.697V218.992ZM173.731 192.661V248.797H164.523V192.661H173.731ZM211.425 249.362C206.201 249.362 201.382 248.151 196.967 245.728C192.605 243.251 189.132 239.831 186.547 235.47C184.016 231.054 182.751 226.1 182.751 220.608C182.751 215.115 184.016 210.188 186.547 205.827C189.132 201.465 192.605 198.073 196.967 195.65C201.382 193.173 206.201 191.934 211.425 191.934C216.702 191.934 221.521 193.173 225.883 195.65C230.298 198.073 233.771 201.465 236.302 205.827C238.833 210.188 240.098 215.115 240.098 220.608C240.098 226.1 238.833 231.054 236.302 235.47C233.771 239.831 230.298 243.251 225.883 245.728C221.521 248.151 216.702 249.362 211.425 249.362ZM211.425 241.366C215.14 241.366 218.452 240.531 221.359 238.862C224.267 237.139 226.529 234.716 228.144 231.593C229.813 228.416 230.648 224.754 230.648 220.608C230.648 216.462 229.813 212.827 228.144 209.704C226.529 206.581 224.267 204.184 221.359 202.515C218.452 200.846 215.14 200.011 211.425 200.011C207.709 200.011 204.398 200.846 201.49 202.515C198.582 204.184 196.294 206.581 194.624 209.704C193.009 212.827 192.201 216.462 192.201 220.608C192.201 224.754 193.009 228.416 194.624 231.593C196.294 234.716 198.582 237.139 201.49 238.862C204.398 240.531 207.709 241.366 211.425 241.366Z" fill="white"/>
<path d="M5.12572 275.684V266.387H8.26684C8.99614 266.387 9.59229 266.519 10.0553 266.782C10.5213 267.042 10.8663 267.395 11.0902 267.84C11.3142 268.285 11.4261 268.781 11.4261 269.329C11.4261 269.876 11.3142 270.374 11.0902 270.822C10.8693 271.27 10.5274 271.627 10.0644 271.893C9.60137 272.157 9.00824 272.288 8.285 272.288H6.03356V271.29H8.24869C8.748 271.29 9.14896 271.203 9.45157 271.031C9.75419 270.858 9.97358 270.625 10.1098 270.332C10.249 270.035 10.3186 269.701 10.3186 269.329C10.3186 268.957 10.249 268.624 10.1098 268.33C9.97358 268.037 9.75267 267.807 9.44703 267.64C9.14139 267.471 8.73589 267.386 8.23053 267.386H6.25144V275.684H5.12572ZM13.2395 275.684V266.387H16.3807C17.1069 266.387 17.7031 266.511 18.1691 266.76C18.6351 267.005 18.9801 267.342 19.204 267.772C19.428 268.201 19.5399 268.69 19.5399 269.238C19.5399 269.786 19.428 270.271 19.204 270.695C18.9801 271.119 18.6366 271.452 18.1736 271.694C17.7106 271.933 17.119 272.052 16.3988 272.052H13.8569V271.035H16.3625C16.8588 271.035 17.2582 270.963 17.5608 270.818C17.8665 270.672 18.0874 270.467 18.2236 270.2C18.3628 269.931 18.4324 269.61 18.4324 269.238C18.4324 268.866 18.3628 268.54 18.2236 268.262C18.0844 267.984 17.8619 267.769 17.5563 267.617C17.2507 267.463 16.8467 267.386 16.3443 267.386H14.3652V275.684H13.2395ZM17.6153 271.508L19.9031 275.684H18.5958L16.3443 271.508H17.6153ZM21.4158 275.684V266.387H27.0262V267.386H22.5415V270.527H26.7357V271.526H22.5415V274.685H27.0988V275.684H21.4158ZM36.5358 269.292H35.4101C35.3435 268.969 35.227 268.684 35.0606 268.439C34.8972 268.194 34.6974 267.988 34.4614 267.822C34.2284 267.652 33.9697 267.525 33.6852 267.44C33.4007 267.356 33.1042 267.313 32.7955 267.313C32.2327 267.313 31.7228 267.456 31.2658 267.74C30.8119 268.024 30.4503 268.444 30.1809 268.997C29.9146 269.551 29.7815 270.231 29.7815 271.035C29.7815 271.84 29.9146 272.52 30.1809 273.074C30.4503 273.627 30.8119 274.046 31.2658 274.331C31.7228 274.615 32.2327 274.758 32.7955 274.758C33.1042 274.758 33.4007 274.715 33.6852 274.631C33.9697 274.546 34.2284 274.42 34.4614 274.254C34.6974 274.084 34.8972 273.877 35.0606 273.632C35.227 273.384 35.3435 273.099 35.4101 272.779H36.5358C36.4511 273.254 36.2967 273.679 36.0728 274.054C35.8489 274.429 35.5705 274.749 35.2376 275.012C34.9047 275.272 34.531 275.47 34.1164 275.606C33.7049 275.743 33.2646 275.811 32.7955 275.811C32.0027 275.811 31.2976 275.617 30.6802 275.23C30.0629 274.842 29.5772 274.292 29.2232 273.577C28.8691 272.863 28.6921 272.016 28.6921 271.035C28.6921 270.055 28.8691 269.208 29.2232 268.494C29.5772 267.779 30.0629 267.229 30.6802 266.841C31.2976 266.454 32.0027 266.26 32.7955 266.26C33.2646 266.26 33.7049 266.328 34.1164 266.464C34.531 266.601 34.9047 266.8 35.2376 267.064C35.5705 267.324 35.8489 267.642 36.0728 268.017C36.2967 268.389 36.4511 268.814 36.5358 269.292ZM39.4806 266.387V275.684H38.3549V266.387H39.4806ZM46.8216 268.711C46.7672 268.251 46.5462 267.894 46.1589 267.64C45.7716 267.386 45.2965 267.259 44.7336 267.259C44.322 267.259 43.9619 267.325 43.6533 267.459C43.3476 267.592 43.1086 267.775 42.9361 268.008C42.7666 268.241 42.6819 268.506 42.6819 268.802C42.6819 269.05 42.7409 269.264 42.8589 269.442C42.98 269.618 43.1343 269.764 43.3219 269.883C43.5095 269.997 43.7062 270.093 43.912 270.168C44.1178 270.241 44.3069 270.3 44.4794 270.346L45.4236 270.6C45.6656 270.663 45.935 270.751 46.2315 270.863C46.5311 270.975 46.8171 271.128 47.0894 271.321C47.3648 271.512 47.5918 271.757 47.7703 272.057C47.9489 272.356 48.0381 272.724 48.0381 273.16C48.0381 273.662 47.9065 274.116 47.6432 274.522C47.383 274.927 47.0017 275.249 46.4993 275.488C46 275.727 45.3933 275.847 44.6791 275.847C44.0134 275.847 43.4369 275.74 42.9497 275.525C42.4655 275.31 42.0842 275.01 41.8058 274.626C41.5304 274.242 41.3746 273.795 41.3383 273.287H42.5003C42.5306 273.638 42.6486 273.928 42.8544 274.158C43.0632 274.385 43.3264 274.555 43.6442 274.667C43.965 274.776 44.3099 274.83 44.6791 274.83C45.1088 274.83 45.4947 274.761 45.8366 274.621C46.1786 274.479 46.4494 274.282 46.6491 274.031C46.8489 273.777 46.9487 273.481 46.9487 273.142C46.9487 272.833 46.8625 272.582 46.69 272.388C46.5175 272.194 46.2905 272.037 46.0091 271.916C45.7277 271.795 45.4236 271.689 45.0967 271.598L43.9529 271.271C43.2266 271.063 42.6516 270.765 42.228 270.377C41.8043 269.99 41.5925 269.483 41.5925 268.857C41.5925 268.336 41.7332 267.882 42.0146 267.495C42.2991 267.105 42.6804 266.802 43.1585 266.587C43.6396 266.369 44.1768 266.26 44.7699 266.26C45.3691 266.26 45.9017 266.368 46.3677 266.583C46.8337 266.794 47.2029 267.085 47.4753 267.454C47.7506 267.823 47.8959 268.242 47.911 268.711H46.8216ZM51.0147 266.387V275.684H49.889V266.387H51.0147ZM61.1155 271.035C61.1155 272.016 60.9385 272.863 60.5845 273.577C60.2304 274.292 59.7447 274.842 59.1274 275.23C58.51 275.617 57.805 275.811 57.0121 275.811C56.2193 275.811 55.5142 275.617 54.8968 275.23C54.2795 274.842 53.7938 274.292 53.4398 273.577C53.0857 272.863 52.9087 272.016 52.9087 271.035C52.9087 270.055 53.0857 269.208 53.4398 268.494C53.7938 267.779 54.2795 267.229 54.8968 266.841C55.5142 266.454 56.2193 266.26 57.0121 266.26C57.805 266.26 58.51 266.454 59.1274 266.841C59.7447 267.229 60.2304 267.779 60.5845 268.494C60.9385 269.208 61.1155 270.055 61.1155 271.035ZM60.0261 271.035C60.0261 270.231 59.8915 269.551 59.6221 268.997C59.3558 268.444 58.9942 268.024 58.5373 267.74C58.0834 267.456 57.575 267.313 57.0121 267.313C56.4493 267.313 55.9393 267.456 55.4824 267.74C55.0285 268.024 54.6669 268.444 54.3975 268.997C54.1312 269.551 53.9981 270.231 53.9981 271.035C53.9981 271.84 54.1312 272.52 54.3975 273.074C54.6669 273.627 55.0285 274.046 55.4824 274.331C55.9393 274.615 56.4493 274.758 57.0121 274.758C57.575 274.758 58.0834 274.615 58.5373 274.331C58.9942 274.046 59.3558 273.627 59.6221 273.074C59.8915 272.52 60.0261 271.84 60.0261 271.035ZM70.38 266.387V275.684H69.2906L64.2249 268.385H64.1341V275.684H63.0084V266.387H64.0978L69.1817 273.705H69.2725V266.387H70.38ZM76.8631 275.756C76.6392 275.756 76.4471 275.676 76.2867 275.516C76.1263 275.355 76.0461 275.163 76.0461 274.939C76.0461 274.715 76.1263 274.523 76.2867 274.363C76.4471 274.202 76.6392 274.122 76.8631 274.122C77.0871 274.122 77.2792 274.202 77.4396 274.363C77.6 274.523 77.6802 274.715 77.6802 274.939C77.6802 275.087 77.6424 275.224 77.5667 275.348C77.4941 275.472 77.3957 275.572 77.2717 275.647C77.1506 275.72 77.0145 275.756 76.8631 275.756ZM83.7241 275.684H82.5439L85.9574 266.387H87.1195L90.5329 275.684H89.3527L86.5748 267.858H86.5021L83.7241 275.684ZM84.1599 272.052H88.917V273.051H84.1599V272.052ZM99.0246 269.292H97.8989C97.8323 268.969 97.7158 268.684 97.5494 268.439C97.386 268.194 97.1863 267.988 96.9502 267.822C96.7172 267.652 96.4585 267.525 96.174 267.44C95.8896 267.356 95.593 267.313 95.2843 267.313C94.7215 267.313 94.2116 267.456 93.7546 267.74C93.3007 268.024 92.9391 268.444 92.6698 268.997C92.4035 269.551 92.2703 270.231 92.2703 271.035C92.2703 271.84 92.4035 272.52 92.6698 273.074C92.9391 273.627 93.3007 274.046 93.7546 274.331C94.2116 274.615 94.7215 274.758 95.2843 274.758C95.593 274.758 95.8896 274.715 96.174 274.631C96.4585 274.546 96.7172 274.42 96.9502 274.254C97.1863 274.084 97.386 273.877 97.5494 273.632C97.7158 273.384 97.8323 273.099 97.8989 272.779H99.0246C98.9399 273.254 98.7856 273.679 98.5616 274.054C98.3377 274.429 98.0593 274.749 97.7264 275.012C97.3935 275.272 97.0198 275.47 96.6052 275.606C96.1937 275.743 95.7534 275.811 95.2843 275.811C94.4915 275.811 93.7864 275.617 93.1691 275.23C92.5517 274.842 92.066 274.292 91.712 273.577C91.3579 272.863 91.1809 272.016 91.1809 271.035C91.1809 270.055 91.3579 269.208 91.712 268.494C92.066 267.779 92.5517 267.229 93.1691 266.841C93.7864 266.454 94.4915 266.26 95.2843 266.26C95.7534 266.26 96.1937 266.328 96.6052 266.464C97.0198 266.601 97.3935 266.8 97.7264 267.064C98.0593 267.324 98.3377 267.642 98.5616 268.017C98.7856 268.389 98.9399 268.814 99.0246 269.292ZM108.324 269.292H107.199C107.132 268.969 107.015 268.684 106.849 268.439C106.686 268.194 106.486 267.988 106.25 267.822C106.017 267.652 105.758 267.525 105.474 267.44C105.189 267.356 104.893 267.313 104.584 267.313C104.021 267.313 103.511 267.456 103.054 267.74C102.6 268.024 102.239 268.444 101.969 268.997C101.703 269.551 101.57 270.231 101.57 271.035C101.57 271.84 101.703 272.52 101.969 273.074C102.239 273.627 102.6 274.046 103.054 274.331C103.511 274.615 104.021 274.758 104.584 274.758C104.893 274.758 105.189 274.715 105.474 274.631C105.758 274.546 106.017 274.42 106.25 274.254C106.486 274.084 106.686 273.877 106.849 273.632C107.015 273.384 107.132 273.099 107.199 272.779H108.324C108.24 273.254 108.085 273.679 107.861 274.054C107.637 274.429 107.359 274.749 107.026 275.012C106.693 275.272 106.319 275.47 105.905 275.606C105.493 275.743 105.053 275.811 104.584 275.811C103.791 275.811 103.086 275.617 102.469 275.23C101.851 274.842 101.366 274.292 101.012 273.577C100.658 272.863 100.481 272.016 100.481 271.035C100.481 270.055 100.658 269.208 101.012 268.494C101.366 267.779 101.851 267.229 102.469 266.841C103.086 266.454 103.791 266.26 104.584 266.26C105.053 266.26 105.493 266.328 105.905 266.464C106.319 266.601 106.693 266.8 107.026 267.064C107.359 267.324 107.637 267.642 107.861 268.017C108.085 268.389 108.24 268.814 108.324 269.292ZM116.244 266.387H117.37V272.542C117.37 273.178 117.22 273.745 116.92 274.245C116.624 274.741 116.205 275.133 115.663 275.42C115.121 275.705 114.486 275.847 113.757 275.847C113.027 275.847 112.392 275.705 111.85 275.42C111.308 275.133 110.888 274.741 110.588 274.245C110.292 273.745 110.143 273.178 110.143 272.542V266.387H111.269V272.452C111.269 272.906 111.369 273.31 111.569 273.664C111.768 274.015 112.053 274.292 112.422 274.494C112.794 274.694 113.239 274.794 113.757 274.794C114.274 274.794 114.719 274.694 115.091 274.494C115.463 274.292 115.748 274.015 115.944 273.664C116.144 273.31 116.244 272.906 116.244 272.452V266.387ZM119.618 275.684V266.387H122.759C123.485 266.387 124.081 266.511 124.547 266.76C125.013 267.005 125.358 267.342 125.582 267.772C125.806 268.201 125.918 268.69 125.918 269.238C125.918 269.786 125.806 270.271 125.582 270.695C125.358 271.119 125.015 271.452 124.552 271.694C124.089 271.933 123.497 272.052 122.777 272.052H120.235V271.035H122.741C123.237 271.035 123.637 270.963 123.939 270.818C124.245 270.672 124.466 270.467 124.602 270.2C124.741 269.931 124.811 269.61 124.811 269.238C124.811 268.866 124.741 268.54 124.602 268.262C124.463 267.984 124.24 267.769 123.935 267.617C123.629 267.463 123.225 267.386 122.723 267.386H120.744V275.684H119.618ZM123.994 271.508L126.281 275.684H124.974L122.723 271.508H123.994ZM128.175 275.684H126.995L130.409 266.387H131.571L134.984 275.684H133.804L131.026 267.858H130.953L128.175 275.684ZM128.611 272.052H133.368V273.051H128.611V272.052ZM143.476 269.292H142.35C142.284 268.969 142.167 268.684 142.001 268.439C141.837 268.194 141.637 267.988 141.401 267.822C141.168 267.652 140.91 267.525 140.625 267.44C140.341 267.356 140.044 267.313 139.736 267.313C139.173 267.313 138.663 267.456 138.206 267.74C137.752 268.024 137.39 268.444 137.121 268.997C136.855 269.551 136.721 270.231 136.721 271.035C136.721 271.84 136.855 272.52 137.121 273.074C137.39 273.627 137.752 274.046 138.206 274.331C138.663 274.615 139.173 274.758 139.736 274.758C140.044 274.758 140.341 274.715 140.625 274.631C140.91 274.546 141.168 274.42 141.401 274.254C141.637 274.084 141.837 273.877 142.001 273.632C142.167 273.384 142.284 273.099 142.35 272.779H143.476C143.391 273.254 143.237 273.679 143.013 274.054C142.789 274.429 142.51 274.749 142.178 275.012C141.845 275.272 141.471 275.47 141.056 275.606C140.645 275.743 140.205 275.811 139.736 275.811C138.943 275.811 138.238 275.617 137.62 275.23C137.003 274.842 136.517 274.292 136.163 273.577C135.809 272.863 135.632 272.016 135.632 271.035C135.632 270.055 135.809 269.208 136.163 268.494C136.517 267.779 137.003 267.229 137.62 266.841C138.238 266.454 138.943 266.26 139.736 266.26C140.205 266.26 140.645 266.328 141.056 266.464C141.471 266.601 141.845 266.8 142.178 267.064C142.51 267.324 142.789 267.642 143.013 268.017C143.237 268.389 143.391 268.814 143.476 269.292ZM144.496 266.387H145.785L148.363 270.727H148.472L151.051 266.387H152.34L148.981 271.853V275.684H147.855V271.853L144.496 266.387ZM158.026 275.756C157.802 275.756 157.61 275.676 157.45 275.516C157.289 275.355 157.209 275.163 157.209 274.939C157.209 274.715 157.289 274.523 157.45 274.363C157.61 274.202 157.802 274.122 158.026 274.122C158.25 274.122 158.442 274.202 158.603 274.363C158.763 274.523 158.843 274.715 158.843 274.939C158.843 275.087 158.805 275.224 158.73 275.348C158.657 275.472 158.559 275.572 158.435 275.647C158.314 275.72 158.178 275.756 158.026 275.756ZM164.506 275.684V266.387H170.116V267.386H165.632V270.527H169.826V271.526H165.632V274.685H170.189V275.684H164.506ZM172.69 266.387L175.087 270.255H175.159L177.556 266.387H178.882L175.958 271.035L178.882 275.684H177.556L175.159 271.889H175.087L172.69 275.684H171.365L174.361 271.035L171.365 266.387H172.69ZM180.728 275.684H179.548L182.961 266.387H184.123L187.537 275.684H186.356L183.578 267.858H183.506L180.728 275.684ZM181.164 272.052H185.921V273.051H181.164V272.052ZM196.028 269.292H194.903C194.836 268.969 194.72 268.684 194.553 268.439C194.39 268.194 194.19 267.988 193.954 267.822C193.721 267.652 193.462 267.525 193.178 267.44C192.893 267.356 192.597 267.313 192.288 267.313C191.725 267.313 191.215 267.456 190.758 267.74C190.304 268.024 189.943 268.444 189.673 268.997C189.407 269.551 189.274 270.231 189.274 271.035C189.274 271.84 189.407 272.52 189.673 273.074C189.943 273.627 190.304 274.046 190.758 274.331C191.215 274.615 191.725 274.758 192.288 274.758C192.597 274.758 192.893 274.715 193.178 274.631C193.462 274.546 193.721 274.42 193.954 274.254C194.19 274.084 194.39 273.877 194.553 273.632C194.72 273.384 194.836 273.099 194.903 272.779H196.028C195.944 273.254 195.789 273.679 195.565 274.054C195.341 274.429 195.063 274.749 194.73 275.012C194.397 275.272 194.024 275.47 193.609 275.606C193.197 275.743 192.757 275.811 192.288 275.811C191.495 275.811 190.79 275.617 190.173 275.23C189.555 274.842 189.07 274.292 188.716 273.577C188.362 272.863 188.185 272.016 188.185 271.035C188.185 270.055 188.362 269.208 188.716 268.494C189.07 267.779 189.555 267.229 190.173 266.841C190.79 266.454 191.495 266.26 192.288 266.26C192.757 266.26 193.197 266.328 193.609 266.464C194.024 266.601 194.397 266.8 194.73 267.064C195.063 267.324 195.341 267.642 195.565 268.017C195.789 268.389 195.944 268.814 196.028 269.292ZM197.339 267.386V266.387H204.311V267.386H201.388V275.684H200.262V267.386H197.339ZM213.42 266.387V275.684H212.331L207.265 268.385H207.174V275.684H206.049V266.387H207.138L212.222 273.705H212.313V266.387H213.42ZM215.673 275.684V266.387H221.283V267.386H216.799V270.527H220.993V271.526H216.799V274.685H221.356V275.684H215.673ZM228.396 268.711C228.342 268.251 228.121 267.894 227.733 267.64C227.346 267.386 226.871 267.259 226.308 267.259C225.897 267.259 225.537 267.325 225.228 267.459C224.922 267.592 224.683 267.775 224.511 268.008C224.341 268.241 224.256 268.506 224.256 268.802C224.256 269.05 224.315 269.264 224.433 269.442C224.555 269.618 224.709 269.764 224.896 269.883C225.084 269.997 225.281 270.093 225.487 270.168C225.692 270.241 225.881 270.3 226.054 270.346L226.998 270.6C227.24 270.663 227.51 270.751 227.806 270.863C228.106 270.975 228.392 271.128 228.664 271.321C228.939 271.512 229.166 271.757 229.345 272.057C229.523 272.356 229.613 272.724 229.613 273.16C229.613 273.662 229.481 274.116 229.218 274.522C228.958 274.927 228.576 275.249 228.074 275.488C227.575 275.727 226.968 275.847 226.254 275.847C225.588 275.847 225.011 275.74 224.524 275.525C224.04 275.31 223.659 275.01 223.38 274.626C223.105 274.242 222.949 273.795 222.913 273.287H224.075C224.105 273.638 224.223 273.928 224.429 274.158C224.638 274.385 224.901 274.555 225.219 274.667C225.54 274.776 225.885 274.83 226.254 274.83C226.683 274.83 227.069 274.761 227.411 274.621C227.753 274.479 228.024 274.282 228.224 274.031C228.423 273.777 228.523 273.481 228.523 273.142C228.523 272.833 228.437 272.582 228.265 272.388C228.092 272.194 227.865 272.037 227.584 271.916C227.302 271.795 226.998 271.689 226.671 271.598L225.527 271.271C224.801 271.063 224.226 270.765 223.803 270.377C223.379 269.99 223.167 269.483 223.167 268.857C223.167 268.336 223.308 267.882 223.589 267.495C223.874 267.105 224.255 266.802 224.733 266.587C225.214 266.369 225.751 266.26 226.344 266.26C226.944 266.26 227.476 266.368 227.942 266.583C228.408 266.794 228.777 267.085 229.05 267.454C229.325 267.823 229.47 268.242 229.486 268.711H228.396ZM236.547 268.711C236.493 268.251 236.272 267.894 235.885 267.64C235.497 267.386 235.022 267.259 234.459 267.259C234.048 267.259 233.688 267.325 233.379 267.459C233.073 267.592 232.834 267.775 232.662 268.008C232.492 268.241 232.408 268.506 232.408 268.802C232.408 269.05 232.467 269.264 232.585 269.442C232.706 269.618 232.86 269.764 233.048 269.883C233.235 269.997 233.432 270.093 233.638 270.168C233.844 270.241 234.033 270.3 234.205 270.346L235.149 270.6C235.391 270.663 235.661 270.751 235.957 270.863C236.257 270.975 236.543 271.128 236.815 271.321C237.091 271.512 237.318 271.757 237.496 272.057C237.675 272.356 237.764 272.724 237.764 273.16C237.764 273.662 237.632 274.116 237.369 274.522C237.109 274.927 236.728 275.249 236.225 275.488C235.726 275.727 235.119 275.847 234.405 275.847C233.739 275.847 233.163 275.74 232.676 275.525C232.191 275.31 231.81 275.01 231.532 274.626C231.256 274.242 231.1 273.795 231.064 273.287H232.226C232.256 273.638 232.374 273.928 232.58 274.158C232.789 274.385 233.052 274.555 233.37 274.667C233.691 274.776 234.036 274.83 234.405 274.83C234.835 274.83 235.22 274.761 235.562 274.621C235.904 274.479 236.175 274.282 236.375 274.031C236.575 273.777 236.675 273.481 236.675 273.142C236.675 272.833 236.588 272.582 236.416 272.388C236.243 272.194 236.016 272.037 235.735 271.916C235.454 271.795 235.149 271.689 234.823 271.598L233.679 271.271C232.952 271.063 232.377 270.765 231.954 270.377C231.53 269.99 231.318 269.483 231.318 268.857C231.318 268.336 231.459 267.882 231.74 267.495C232.025 267.105 232.406 266.802 232.884 266.587C233.365 266.369 233.903 266.26 234.496 266.26C235.095 266.26 235.628 266.368 236.094 266.583C236.56 266.794 236.929 267.085 237.201 267.454C237.476 267.823 237.622 268.242 237.637 268.711H236.547Z" fill="white"/>
</svg>
